<svg height="511pt" viewBox="0 -52 511.76079 511" width="511pt" xmlns="http://www.w3.org/2000/svg"><path d="m233.410156 14.769531c-8.210937 12.359375-26.75 38.578125-48.289062 38.578125-21.539063 0-40.078125-26.21875-48.285156-38.578125 29.332031-19.1875 67.238281-19.1875 96.574218 0zm0 0" fill="#b0d3f0"/><path d="m273.398438 88.65625-88.277344 8.828125-88.273438-8.828125c-.011718-29.804688 15.03125-57.59375 39.988282-73.886719 8.207031 12.359375 26.746093 20.921875 48.285156 20.921875 21.539062 0 40.078125-8.5625 48.289062-20.921875 24.953125 16.292969 39.996094 44.082031 39.988282 73.886719zm0 0" fill="#9fc9d3"/><path d="m92.167969 171.882812 16.152343 190.429688h153.601563l9.355469-110.34375 6.179687-73.101562-21.714843-37.359376zm0 0" fill="#f29c1f"/><path d="m282.226562 123.96875-3.972656 44.929688-.175781 1.765624-.621094 6.710938c-15.523437-5.4375-31.761719-8.558594-48.199219-9.269531-39.722656 0-39.722656 17.65625-79.445312 17.65625-30.457031 0-37.519531-10.328125-57.027344-15.183594l-.617187.085937-.175781-1.765624-3.972657-44.929688 97.101563-8.828125zm0 0" fill="#9fc9d3"/><path d="m140.984375 327c-4.578125.019531-8.410156-3.464844-8.828125-8.023438l-.804688-8.828124c-.441406-4.855469 3.132813-9.152344 7.992188-9.59375 4.855469-.445313 9.148438 3.132812 9.59375 7.988281l.804688 8.828125c.222656 2.332031-.492188 4.660156-1.984376 6.464844-1.496093 1.808593-3.644531 2.945312-5.980468 3.164062-.265625 0-.539063 0-.792969 0zm0 0" fill="#f0c419"/><path d="m136.957031 282.863281c-4.578125.019531-8.410156-3.464843-8.824219-8.023437l-4.8125-52.964844c-.445312-4.878906 3.152344-9.191406 8.027344-9.636719 4.878906-.445312 9.191406 3.152344 9.636719 8.027344l4.820313 52.96875c.222656 2.34375-.5 4.679687-2.011719 6.488281-1.507813 1.808594-3.675781 2.9375-6.023438 3.140625-.273437 0-.539062 0-.8125 0zm0 0" fill="#f0c419"/><path d="m405.8125 291.691406v1.148438c-24.011719 14.476562-53.585938 29.21875-79.449219 25.332031-15.050781-.878906-29.90625-3.851563-44.136719-8.824219-8.035156-3.269531-27.191406 1.765625-35.3125 0-8.386718-1.765625-9.269531-20.214844-17.65625-17.65625-5.914062 1.765625-11.914062 14.917969-17.652343 17.65625-5.03125 2.558594-12.269531-.707031-17.65625 0-4.058594.527344-5.382813-11.566406-8.828125-14.214844v-3.441406c0-24.378906 19.761718-44.136718 44.136718-44.136718h132.414063c24.378906 0 44.140625 19.757812 44.140625 44.136718zm0 0" fill="#ff5364"/><path d="m405.8125 292.839844v16.507812c0 24.375-19.761719 44.136719-44.140625 44.136719l8.828125 17.65625h-158.894531l17.652343-17.65625c-24.375 0-44.136718-19.761719-44.136718-44.136719v-14.214844c3.261718 2.597657 7.429687 3.777344 11.566406 3.265626 5.476562-1.34375 10.695312-3.578126 15.445312-6.617188 5.609376-2.800781 11.421876-5.160156 17.390626-7.0625 8.269531-2.308594 16.992187-2.460938 25.335937-.441406 8.214844 2.324218 16.214844 5.335937 23.921875 9.003906 16.285156 6.878906 33.320312 11.828125 50.761719 14.742188 26.417969 4.105468 53.4375-1.273438 76.269531-15.183594zm0 0" fill="#fdd7ad"/><path d="m449.949219 406.449219h-388.414063c-11.136718.003906-21.085937-6.964844-24.894531-17.433594l-34.789063-95.699219c-5.207031-13.488281.917969-28.703125 14.019532-34.816406 6.6875-2.84375 14.253906-2.8125 20.917968.085938 6.664063 2.898437 11.847657 8.40625 14.328126 15.238281l26.855468 73.851562c1.265625 3.480469 4.574219 5.800781 8.28125 5.808594h338.976563c3.714843 0 7.03125-2.320313 8.300781-5.808594l26.339844-72.449219c4.675781-13.667968 19.136718-21.382812 33.09375-17.652343 6.96875 2.113281 12.757812 7 16.007812 13.511719 3.25 6.511718 3.679688 14.078124 1.179688 20.914062l-35.308594 97.101562c-3.835938 10.433594-13.777344 17.363282-24.894531 17.347657zm0 0" fill="#c03a2b"/><path d="m299.878906 106.3125c-.070312 9.71875-7.933594 17.582031-17.652344 17.65625h-194.207031c-9.738281-.03125-17.628906-7.917969-17.65625-17.65625.070313-9.722656 7.933594-17.582031 17.65625-17.65625h194.207031c9.738282.03125 17.625 7.917969 17.652344 17.65625zm0 0" fill="#4482c3"/></svg>