<svg height="512pt" viewBox="-32 0 512 512" width="512pt" xmlns="http://www.w3.org/2000/svg"><path d="m288 276.207031v-27.648437l-64 17.777344-64-17.777344v27.648437l-80 24.722657v144.734374l144-72 144 72v-144.734374zm0 0" fill="#f7ce8a"/><path d="m448 512h-448v-127.34375c0-35.105469 22.878906-66.097656 56.414062-76.449219l81.921876-25.277343h171.34375l81.921874 25.277343c33.519532 10.351563 56.398438 41.359375 56.398438 76.449219zm0 0" fill="#57565c"/><path d="m309.664062 282.945312-20.625 63.328126-21.792968 49.023437 100.753906 50.367187v-144.71875zm0 0" fill="#2d2d30"/><path d="m158.960938 346.273438-20.625-63.328126-58.335938 18v144.71875l100.753906-50.367187zm0 0" fill="#2d2d30"/><path d="m288 336h-128v-87.441406l-48-32v-104.558594c0-30.0625 11.679688-58.191406 32.894531-79.199219 20.914063-21.121093 49.042969-32.800781 79.105469-32.800781 61.742188 0 112 50.257812 112 112v104.558594l-48 32zm0 0" fill="#f9ddaa"/><path d="m112 181.488281 224-56.015625v-13.472656c0-61.742188-50.257812-112-112-112-30.0625 0-58.191406 11.679688-79.105469 32.800781-21.214843 21.007813-32.894531 49.136719-32.894531 79.199219zm0 0" fill="#f7ce8a"/><path d="m112 148.496094v-36.496094c0-30.0625 11.679688-58.191406 32.894531-79.199219 20.914063-21.121093 49.042969-32.800781 79.105469-32.800781 47.984375 0 90.59375 30.59375 106.03125 76.144531l5.570312 16.449219zm0 0" fill="#57565c"/><path d="m192 32h32v32h-32zm0 0" fill="#fff"/><path d="m144 80h32v32h-32zm0 0" fill="#fff"/><path d="m339.519531 292.160156-21.28125 67.039063-67.839843 152.800781h-52.796876l-68.160156-153.441406-20.960937-66.398438 51.519531-16h128zm0 0" fill="#e4edfb"/><path d="m183.390625 480 14.210937 32h52.796876l14.210937-32zm0 0" fill="#d7e1f2"/><path d="m160 276.160156-51.519531 16 20.960937 66.398438 22.671875 51.058594 71.886719-35.953126 71.855469 35.9375 22.382812-50.402343 21.28125-67.039063-51.519531-16zm0 0" fill="#d7e1f2"/><path d="m336 246.113281-112 56-112-56v147.773438l112-56 112 56zm0 0" fill="#a477bd"/><path d="m336 432h32v80h-32zm0 0" fill="#57565c"/><path d="m80 432h32v80h-32zm0 0" fill="#57565c"/><g fill="#2d2d30"><path d="m80 448h32v64h-32zm0 0"/><path d="m336 448h32v64h-32zm0 0"/></g></svg>